HIERARCHY
ROOT Hips
{
	OFFSET 0.000000 0.000000 0.000000
	CHANNELS 6 Xposition Yposition Zposition Zrotation Yrotation Xrotation 
	JOINT LowerBack
	{
		OFFSET 0.000000 0.000000 0.000000
		CHANNELS 3 Zrotation Yrotation Xrotation
		JOINT Spine
		{
			OFFSET 0.028270 2.035590 -0.193380
			CHANNELS 3 Zrotation Yrotation Xrotation
			JOINT Spine1
			{
				OFFSET 0.056720 2.048850 -0.042750
				CHANNELS 3 Zrotation Yrotation Xrotation
				JOINT Neck
				{
					OFFSET 0.000000 0.000000 0.000000
					CHANNELS 3 Zrotation Yrotation Xrotation
					JOINT Neck1
					{
						OFFSET -0.054170 1.746240 0.172020
						CHANNELS 3 Zrotation Yrotation Xrotation
						JOINT Head
						{
							OFFSET 0.104070 1.761360 -0.123970
							CHANNELS 3 Zrotation Yrotation Xrotation
							End Site
							{
								OFFSET 0.000000 0.000000 0.000000
							}
						}
					}
				}
				JOINT LeftShoulder
				{
					OFFSET 0.000000 0.000000 0.000000
					CHANNELS 3 Zrotation Yrotation Xrotation
					JOINT LeftArm
					{
						OFFSET 3.362410 1.200890 -0.311210
						CHANNELS 3 Zrotation Yrotation Xrotation
						JOINT LeftForeArm
						{
							OFFSET 4.983000 -0.000000 -0.000000
							CHANNELS 3 Zrotation Yrotation Xrotation
							JOINT LeftHand
							{
								OFFSET 3.483560 -0.000000 -0.000000
								CHANNELS 3 Zrotation Yrotation Xrotation
								JOINT LeftFingerBase
								{
									OFFSET 0.000000 0.000000 0.000000
									CHANNELS 3 Zrotation Yrotation Xrotation
									JOINT LeftHandIndex1
									{
										OFFSET 0.715260 -0.000000 -0.000000
										CHANNELS 3 Zrotation Yrotation Xrotation
										End Site
										{
											OFFSET 0.000000 0.000000 0.000000
										}
									}
								}
								JOINT LThumb
								{
									OFFSET 0.000000 0.000000 0.000000
									CHANNELS 3 Zrotation Yrotation Xrotation
									End Site
									{
										OFFSET 0.000000 0.000000 0.000000
									}
								}
							}
						}
					}
				}
				JOINT RightShoulder
				{
					OFFSET 0.000000 0.000000 0.000000
					CHANNELS 3 Zrotation Yrotation Xrotation
					JOINT RightArm
					{
						OFFSET -3.136600 1.374050 -0.404650
						CHANNELS 3 Zrotation Yrotation Xrotation
						JOINT RightForeArm
						{
							OFFSET -5.241900 -0.000000 -0.000000
							CHANNELS 3 Zrotation Yrotation Xrotation
							JOINT RightHand
							{
								OFFSET -3.444170 -0.000000 -0.000000
								CHANNELS 3 Zrotation Yrotation Xrotation
								JOINT RightFingerBase
								{
									OFFSET 0.000000 0.000000 0.000000
									CHANNELS 3 Zrotation Yrotation Xrotation
									JOINT RightHandIndex1
									{
										OFFSET -0.622530 -0.000000 -0.000000
										CHANNELS 3 Zrotation Yrotation Xrotation
										End Site
										{
											OFFSET 0.000000 0.000000 0.000000
										}
									}
								}
								JOINT RThumb
								{
									OFFSET 0.000000 0.000000 0.000000
									CHANNELS 3 Zrotation Yrotation Xrotation
									End Site
									{
										OFFSET 0.000000 0.000000 0.000000
									}
								}
							}
						}
					}
				}
			}
		}
	}
}
}
MOTION
Frames: 12
Frame Time: 0.008333
26.972296 17.128957 4.500772 -29.784631 -87.416925 34.095693 4.069147 -3.908299 -6.266595 0.516443 -4.398255 -3.276805 -5.086695 -4.377082 3.714111 9.869497 -21.884548 -9.768928 -2.219090 -0.153499 -0.478973 0.000000 0.000000 0.000000 0.436565 15.755577 0.599445 -52.699574 -2.510445 0.745642 -3.780467 -30.579366 -0.002643 -0.827685 1.877797 -0.009574 -0.162824 0.044430 -0.000000 0.000000 0.000000 0.000000 0.000000 0.000000 0.000000 14.757130 -20.024385 -0.962543 66.635463 -11.371890 -13.191674 3.980296 31.742055 0.010432 6.025663 2.996681 0.158333 0.088951 -0.045076 -0.000000 0.000000 0.000000 0.000000 0.000000 0.000000 0.000000 
26.837193 17.138251 4.451738 -28.636801 -87.247310 32.853784 4.237112 -3.894927 -6.288976 0.552152 -4.399190 -3.283908 -5.068540 -4.378496 3.703791 9.848548 -21.887993 -9.764221 -2.227799 -0.154506 -0.477576 0.000000 0.000000 0.000000 0.517393 15.717894 0.586084 -52.786623 -2.204507 0.545311 -3.762947 -30.844319 -0.002506 -0.894965 1.862411 -0.010571 -0.161902 0.044746 -0.000000 0.000000 0.000000 0.000000 0.000000 0.000000 0.000000 14.781118 -20.008856 -0.955183 66.343987 -11.222097 -13.186486 3.988232 31.642019 0.010304 6.019061 2.933338 0.154830 0.089239 -0.044723 -0.000000 0.000000 0.000000 0.000000 0.000000 0.000000 0.000000 
26.702325 17.147940 4.401592 -27.315827 -87.062796 31.441431 4.386520 -3.886924 -6.308490 0.584064 -4.404069 -3.290161 -5.052731 -4.383917 3.693512 9.835673 -21.893200 -9.758371 -2.237728 -0.155625 -0.475826 0.000000 0.000000 0.000000 0.614395 15.662896 0.572300 -52.889037 -1.868483 0.392127 -3.746726 -31.109259 -0.002375 -0.995096 1.856985 -0.012168 -0.160832 0.044724 -0.000000 0.000000 0.000000 0.000000 0.000000 0.000000 0.000000 14.817800 -19.998760 -0.947400 66.069364 -11.045983 -13.193250 3.996273 31.536483 0.010159 6.023969 2.858216 0.151029 0.089435 -0.044350 -0.000000 0.000000 0.000000 0.000000 0.000000 0.000000 0.000000 
26.568149 17.157671 4.351072 -26.057324 -86.858650 30.087146 4.533182 -3.882684 -6.316688 0.615367 -4.412292 -3.294077 -5.039012 -4.392673 3.683734 9.826792 -21.898651 -9.754056 -2.248447 -0.156768 -0.474557 0.000000 0.000000 0.000000 0.715022 15.603056 0.559271 -53.003097 -1.527993 0.288174 -3.732640 -31.362479 -0.002254 -1.129710 1.863075 -0.014370 -0.159643 0.044421 -0.000000 0.000000 0.000000 0.000000 0.000000 0.000000 0.000000 14.861553 -19.991811 -0.939734 65.807837 -10.841169 -13.200957 4.003855 31.429046 0.010025 6.032306 2.786625 0.147527 0.089563 -0.044047 -0.000000 0.000000 0.000000 0.000000 0.000000 0.000000 0.000000 
26.434684 17.167259 4.299997 -24.693204 -86.634116 28.631658 4.666378 -3.881556 -6.321810 0.643546 -4.422581 -3.297406 -5.028519 -4.403448 3.673137 9.824433 -21.906910 -9.750740 -2.260764 -0.158026 -0.473501 0.000000 0.000000 0.000000 0.820788 15.524339 0.546860 -53.119092 -1.173835 0.242001 -3.720045 -31.607953 -0.002139 -1.291316 1.876213 -0.017070 -0.158348 0.043765 -0.000000 0.000000 0.000000 0.000000 0.000000 0.000000 0.000000 14.917653 -19.989876 -0.931456 65.559762 -10.618255 -13.212992 4.010507 31.329604 0.009908 6.043290 2.720234 0.144325 0.089638 -0.043842 -0.000000 0.000000 0.000000 0.000000 0.000000 0.000000 0.000000 
26.302085 17.176458 4.248914 -23.357998 -86.388484 27.204621 4.794503 -3.881191 -6.320223 0.670064 -4.433146 -3.299663 -5.021407 -4.414385 3.661276 9.826843 -21.916577 -9.749691 -2.274770 -0.159386 -0.473058 0.000000 0.000000 0.000000 0.925093 15.431616 0.535345 -53.235503 -0.820184 0.252232 -3.708840 -31.839355 -0.002036 -1.473148 1.894745 -0.020272 -0.156978 0.042806 -0.000000 0.000000 0.000000 0.000000 0.000000 0.000000 0.000000 14.984469 -19.990125 -0.922634 65.321206 -10.379088 -13.222033 4.015832 31.241046 0.009828 6.050840 2.668988 0.141824 0.089682 -0.043792 -0.000000 0.000000 0.000000 0.000000 0.000000 0.000000 0.000000 
26.170475 17.185179 4.198008 -22.036244 -86.124162 25.794076 4.914911 -3.879566 -6.313214 0.694040 -4.441789 -3.301221 -5.018271 -4.423258 3.647468 9.834997 -21.927439 -9.750798 -2.290794 -0.160883 -0.473172 0.000000 0.000000 0.000000 1.027539 15.320766 0.524493 -53.350288 -0.467920 0.316061 -3.698477 -32.056118 -0.001945 -1.664240 1.915086 -0.023675 -0.155570 0.041556 -0.000000 0.000000 0.000000 0.000000 0.000000 0.000000 0.000000 15.063658 -19.991388 -0.912693 65.089533 -10.128782 -13.224769 4.019642 31.166058 0.009794 6.051587 2.636668 0.140124 0.089725 -0.043915 -0.000000 0.000000 0.000000 0.000000 0.000000 0.000000 0.000000 
26.040232 17.193283 4.148131 -20.973236 -85.843499 24.641139 5.047473 -3.872940 -6.296497 0.719292 -4.446221 -3.301277 -5.018763 -4.427675 3.632923 9.845425 -21.935830 -9.756255 -2.308373 -0.162440 -0.474565 0.000000 0.000000 0.000000 1.118358 15.211493 0.514394 -53.467972 -0.144965 0.427742 -3.688991 -32.245790 -0.001870 -1.854758 1.935072 -0.027079 -0.154187 0.040150 -0.000000 0.000000 0.000000 0.000000 0.000000 0.000000 0.000000 15.149879 -19.988184 -0.902227 64.858654 -9.862397 -13.209491 4.022057 31.099273 0.009818 6.037866 2.633040 0.139625 0.089804 -0.044243 -0.000000 0.000000 0.000000 0.000000 0.000000 0.000000 0.000000 
25.911279 17.200799 4.099140 -20.019847 -85.553112 23.599181 5.179842 -3.860077 -6.273128 0.742965 -4.444310 -3.300654 -5.023512 -4.425541 3.615676 9.860422 -21.939778 -9.762978 -2.328195 -0.164168 -0.476337 0.000000 0.000000 0.000000 1.203237 15.088920 0.504117 -53.588370 0.167366 0.578864 -3.679038 -32.418690 -0.001809 -2.031114 1.951177 -0.030384 -0.152843 0.038564 -0.000000 0.000000 0.000000 0.000000 0.000000 0.000000 0.000000 15.246216 -19.977833 -0.890093 64.630032 -9.588329 -13.184521 4.023240 31.041449 0.009887 6.012583 2.650646 0.140027 0.089925 -0.044738 -0.000000 0.000000 0.000000 0.000000 0.000000 0.000000 0.000000 
25.784077 17.207822 4.051395 -19.246913 -85.258592 22.739392 5.318192 -3.838788 -6.242258 0.766166 -4.434335 -3.299087 -5.032293 -4.415121 3.596533 9.879005 -21.935836 -9.770680 -2.349979 -0.166045 -0.478469 0.000000 0.000000 0.000000 1.279735 14.963283 0.493143 -53.716661 0.459626 0.760295 -3.668252 -32.571668 -0.001766 -2.182954 1.960991 -0.033090 -0.151581 0.036884 -0.000000 0.000000 0.000000 0.000000 0.000000 0.000000 0.000000 15.350055 -19.956087 -0.876460 64.400676 -9.303556 -13.145759 4.023612 30.985045 0.009997 5.972966 2.688910 0.141030 0.090114 -0.045370 -0.000000 0.000000 0.000000 0.000000 0.000000 0.000000 0.000000 
25.658347 17.214479 4.005069 -18.646382 -84.966689 22.052119 5.461670 -3.807971 -6.204073 0.788678 -4.415127 -3.296526 -5.044763 -4.395279 3.575664 9.901118 -21.921021 -9.777753 -2.373428 -0.168066 -0.480558 0.000000 0.000000 0.000000 1.348647 14.838859 0.480793 -53.856635 0.732031 0.962301 -3.656023 -32.706825 -0.001736 -2.301494 1.963567 -0.035195 -0.150422 0.035165 -0.000000 0.000000 0.000000 0.000000 0.000000 0.000000 0.000000 15.459435 -19.919550 -0.861319 64.170973 -9.005711 -13.095140 4.023643 30.922145 0.010134 5.919623 2.742382 0.142534 0.090379 -0.046095 -0.000000 0.000000 0.000000 0.000000 0.000000 0.000000 0.000000 
25.534199 17.220932 3.960146 -18.188065 -84.684168 21.510049 5.607054 -3.767342 -6.159797 0.809908 -4.386187 -3.292988 -5.060562 -4.365582 3.553825 9.926727 -21.892299 -9.782287 -2.398239 -0.170230 -0.482100 0.000000 0.000000 0.000000 1.411390 14.720450 0.466426 -54.012096 0.987584 1.175787 -3.642017 -32.828137 -0.001724 -2.381352 1.958541 -0.036502 -0.149380 0.033441 -0.000000 0.000000 0.000000 0.000000 0.000000 0.000000 0.000000 15.572470 -19.865492 -0.844794 63.941868 -8.692205 -13.036695 4.023931 30.843836 0.010281 5.853768 2.804016 0.144038 0.090734 -0.046858 -0.000000 0.000000 0.000000 0.000000 0.000000 0.000000 0.000000 
